HIERARCHY
ROOT root
{
	OFFSET 0.000000 0.000000 0.000000
	CHANNELS 6 Xposition Yposition Zposition Zrotation Yrotation Xrotation
	JOINT lhip
	{
		OFFSET 0.058581 -0.082280 -0.017664
		CHANNELS 3 Zrotation Yrotation Xrotation
		JOINT lknee
		{
			OFFSET 0.043451 -0.386469 0.008037
			CHANNELS 3 Zrotation Yrotation Xrotation
			JOINT lankle
			{
				OFFSET -0.014790 -0.426874 -0.037428
				CHANNELS 3 Zrotation Yrotation Xrotation
				JOINT ltoe
				{
					OFFSET 0.041054 -0.060286 0.122042
					CHANNELS 3 Zrotation Yrotation Xrotation
					End Site
					{
						OFFSET 0.000000 0.000000 0.000000
					}
				}
			}
		}
	}
	JOINT rhip
	{
		OFFSET -0.060310 -0.090513 -0.013543
		CHANNELS 3 Zrotation Yrotation Xrotation
		JOINT rknee
		{
			OFFSET -0.043257 -0.383688 -0.004843
			CHANNELS 3 Zrotation Yrotation Xrotation
			JOINT rankle
			{
				OFFSET 0.019056 -0.420046 -0.034562
				CHANNELS 3 Zrotation Yrotation Xrotation
				JOINT rtoe
				{
					OFFSET -0.034840 -0.062106 0.130323
					CHANNELS 3 Zrotation Yrotation Xrotation
					End Site
					{
						OFFSET 0.000000 0.000000 0.000000
					}
				}
			}
		}
	}
	JOINT lowerback
	{
		OFFSET 0.004439 0.124404 -0.038385
		CHANNELS 3 Zrotation Yrotation Xrotation
		JOINT upperback
		{
			OFFSET 0.004488 0.137956 0.026820
			CHANNELS 3 Zrotation Yrotation Xrotation
			JOINT chest
			{
				OFFSET -0.002265 0.056032 0.002855
				CHANNELS 3 Zrotation Yrotation Xrotation
				JOINT lowerneck
				{
					OFFSET -0.013390 0.211636 -0.033468
					CHANNELS 3 Zrotation Yrotation Xrotation
					JOINT upperneck
					{
						OFFSET 0.010113 0.088937 0.050410
						CHANNELS 3 Zrotation Yrotation Xrotation
						End Site
						{
							OFFSET 0.000000 0.000000 0.000000
						}
					}
				}
				JOINT lclavicle
				{
					OFFSET 0.071702 0.114000 -0.018898
					CHANNELS 3 Zrotation Yrotation Xrotation
					JOINT lshoulder
					{
						OFFSET 0.122921 0.045205 -0.019046
						CHANNELS 3 Zrotation Yrotation Xrotation
						JOINT lelbow
						{
							OFFSET 0.255332 -0.015649 -0.022946
							CHANNELS 3 Zrotation Yrotation Xrotation
							JOINT lwrist
							{
								OFFSET 0.265709 0.012698 -0.007375
								CHANNELS 3 Zrotation Yrotation Xrotation
								End Site
								{
									OFFSET 0.000000 0.000000 0.000000
								}
							}
						}
					}
				}
				JOINT rclavicle
				{
					OFFSET -0.082954 0.112472 -0.023707
					CHANNELS 3 Zrotation Yrotation Xrotation
					JOINT rshoulder
					{
						OFFSET -0.113228 0.046853 -0.008472
						CHANNELS 3 Zrotation Yrotation Xrotation
						JOINT relbow
						{
							OFFSET -0.260127 -0.014369 -0.031269
							CHANNELS 3 Zrotation Yrotation Xrotation
							JOINT rwrist
							{
								OFFSET -0.269108 0.006794 -0.006027
								CHANNELS 3 Zrotation Yrotation Xrotation
								End Site
								{
									OFFSET 0.000000 0.000000 0.000000
								}
							}
						}
					}
				}
			}
		}
	}
}
MOTION
Frames: 16
Frame Time: 0.033333
-0.297040 1.112087 0.980260 -178.518257 1.707825 83.029339 2.000037 6.501553 19.617078 -5.882355 -7.231164 3.517479 4.989220 11.604321 -23.198898 0.000000 -0.000000 0.000000 1.001266 2.399428 -25.620223 -0.760247 -4.825630 15.516391 4.676228 -9.569857 -16.298475 0.000000 -0.000000 0.000000 -1.265314 -5.322659 5.592268 1.457190 -1.395395 4.453025 0.417293 -4.423399 1.479685 4.025884 5.730648 -0.943512 0.240621 3.962441 12.165326 -26.762789 -2.730735 4.536590 -57.050876 -16.942181 11.645623 16.068626 -36.113131 -2.208404 5.880226 -7.263649 -9.594869 26.081594 -0.386681 6.415013 58.004350 -0.258635 15.565603 -10.747259 23.019575 3.637803 10.012577 6.157863 -9.890684 
-0.294686 1.148393 0.974509 -177.932720 1.572187 83.499835 3.193917 7.239134 21.496595 -6.373262 -8.056770 3.795072 3.610335 10.660435 -23.135484 0.000000 -0.000000 0.000000 0.613165 1.850758 -26.089389 -0.129894 -4.871199 10.893677 5.397772 -8.290816 -16.224904 0.000000 -0.000000 0.000000 -0.936312 -5.610705 5.202813 1.382259 -1.414275 4.687411 0.430290 -4.490177 1.266570 3.796888 5.879703 -0.990477 0.123622 3.890455 11.900903 -26.961100 -2.555366 4.465321 -57.170578 -17.335656 11.768932 16.234671 -36.636261 -2.175312 5.949808 -7.494260 -9.700487 26.374691 -0.771878 6.628121 57.806011 -0.263660 15.118083 -10.604789 22.123866 3.679305 10.061928 6.015008 -9.546009 
-0.291569 1.186993 0.970882 -177.132611 1.526833 83.654594 4.325495 7.351935 23.304994 -6.623838 -9.134179 5.066234 1.911304 9.934756 -22.548147 0.000000 -0.000000 0.000000 0.201202 1.803237 -26.149717 -0.075914 -6.011093 10.949282 5.362209 -8.646289 -16.324721 0.000000 -0.000000 0.000000 -0.737446 -6.159627 4.987031 1.452722 -1.360647 4.951655 0.474528 -4.595383 1.106398 3.723326 5.995045 -1.203908 -0.130201 3.920383 11.927293 -27.264503 -2.295761 4.569561 -57.630435 -17.322314 11.777004 16.304486 -36.454022 -1.889209 5.692848 -7.550158 -9.751745 26.691646 -0.914165 6.668079 57.604478 -0.356356 14.818735 -10.515460 21.162714 3.831807 10.268520 5.865381 -9.295332 
-0.287442 1.228102 0.969548 -176.287910 1.540122 83.800295 5.333038 7.019442 24.659193 -6.748872 -10.072412 7.265375 -0.185048 9.377539 -21.094484 0.000000 -0.000000 0.000000 0.104517 2.228936 -25.948840 -0.620559 -6.673433 14.518138 4.446144 -9.745485 -16.406967 0.000000 -0.000000 0.000000 -0.696910 -6.701763 4.406684 1.731618 -1.380047 5.354068 0.513444 -4.763002 0.881971 3.772528 6.071524 -1.125422 -0.451421 4.138054 11.922721 -27.740504 -1.883529 4.891032 -58.151524 -16.685303 11.790898 16.132391 -35.676889 -1.407390 5.435708 -7.331329 -9.991444 27.041673 -1.048310 6.606389 57.277249 -0.548249 14.710071 -10.384438 20.348121 4.331944 10.493092 5.702543 -9.352479 
-0.282682 1.272245 0.970350 -175.360966 1.564121 83.974929 6.373158 6.511228 25.349344 -7.035425 -10.584953 10.579928 -2.485787 8.829034 -18.309935 0.000000 -0.000000 0.000000 0.277352 2.206989 -24.961429 -0.951363 -7.837840 17.810073 3.186968 -10.901868 -15.138980 0.000000 -0.000000 0.000000 -0.508898 -6.956990 3.425841 1.987054 -1.616230 5.759218 0.450995 -5.041093 0.516351 3.747911 6.008422 -0.724432 -0.603107 4.473918 12.080376 -28.365395 -1.484639 5.567953 -58.617890 -15.408854 11.647345 15.767847 -34.252817 -0.685368 4.853622 -7.152377 -10.090421 27.330692 -1.314428 6.641583 56.959990 -0.939994 14.445105 -10.194589 19.939001 5.055038 10.667404 5.627139 -9.829398 
-0.277318 1.318379 0.973869 -174.728443 1.798257 83.955414 7.387001 5.871060 24.889471 -7.433063 -9.816404 15.946318 -4.765174 8.641367 -14.006648 0.000000 -0.000000 0.000000 0.508191 1.974019 -23.293141 -0.424111 -8.705507 19.748559 1.888063 -11.160111 -12.600204 0.000000 -0.000000 0.000000 0.146780 -6.879064 2.253547 2.201247 -1.820936 6.414999 0.157454 -5.320265 0.180432 3.717604 5.951405 -0.605388 -0.699854 4.680960 12.702963 -29.274443 -1.225457 6.296623 -58.902300 -13.917431 11.338636 15.337360 -31.869477 -0.060351 3.672932 -7.024112 -9.313907 27.748044 -1.523873 6.886373 56.460271 -1.024109 14.059732 -9.908988 19.606887 5.528065 10.692026 5.640298 -10.601457 
-0.271105 1.362895 0.979040 -174.561809 2.257905 83.896038 8.335673 4.908006 22.301576 -8.113975 -6.644402 24.353224 -6.274389 9.083332 -7.858185 0.000000 -0.000000 0.000000 1.228183 2.272403 -21.745669 0.212473 -9.056369 22.232191 -0.584468 -11.064444 -11.690484 0.000000 -0.000000 0.000000 0.737137 -6.475136 1.138933 2.603711 -1.950982 7.348512 0.008416 -5.416555 -0.283755 3.531410 5.819185 -0.412748 -0.607903 4.898001 13.033143 -29.914575 -1.165305 7.014372 -59.603199 -12.366424 11.017037 15.275911 -28.924047 0.349686 2.185334 -6.311591 -8.656039 27.870604 -1.276158 7.384764 56.222819 -0.687311 13.623546 -9.793275 19.405675 6.463412 11.159168 5.546302 -11.798386 
-0.264293 1.405179 0.983343 -174.577145 2.603545 83.945138 8.824596 3.571739 17.993318 -7.859860 -2.412065 34.525455 -5.734140 10.126981 -0.537096 0.000000 -0.000000 0.000000 2.508014 2.947451 -19.801169 0.037649 -9.091261 23.775351 -3.749429 -11.313453 -12.288479 0.000000 -0.000000 0.000000 0.960142 -5.815623 0.771761 2.980142 -2.073284 7.407791 0.032579 -5.316761 -0.656519 3.260717 5.319791 -0.440821 -0.228300 5.208417 13.612546 -30.011864 -0.796741 7.570308 -60.727851 -10.800485 10.545088 15.272852 -26.231010 1.170571 0.705110 -5.299276 -8.610848 27.649118 -0.872663 7.816563 56.270132 -0.226021 13.570196 -9.707194 19.588098 7.711150 11.471633 5.487162 -13.024567 
-0.258132 1.445137 0.985808 -174.526153 2.879018 84.452834 8.269784 1.027905 12.204787 -5.420182 2.126393 44.246026 -4.306557 12.260583 6.223285 0.000000 -0.000000 0.000000 3.483058 4.669480 -17.387060 0.726355 -8.275883 23.258589 -6.283073 -14.366582 -12.549628 0.000000 -0.000000 0.000000 1.238487 -4.944607 -0.437149 3.162336 -2.175346 9.379085 0.145866 -5.368484 -2.432457 2.716070 3.031228 -1.389645 0.586444 7.073792 15.777219 -29.540257 -0.798192 8.791227 -62.567785 -10.066534 7.403420 15.581508 -23.452176 0.891703 -1.823860 -5.545540 -6.556358 26.521349 0.444141 9.115158 57.389770 0.825119 12.399578 -9.740798 20.052621 8.721459 12.630839 6.041292 -13.905031 
-0.253468 1.483507 0.989992 -174.392943 2.861349 83.921966 7.018638 -1.778743 7.582309 -3.663489 4.206646 51.630783 -2.128941 14.605990 4.427404 0.000000 -0.000000 0.000000 4.513737 4.642793 -13.598347 0.740720 -7.487553 22.254838 -6.776987 -15.333821 -13.819474 0.000000 -0.000000 0.000000 1.308094 -3.635464 0.170781 3.064126 -2.463637 9.382818 0.099778 -5.182176 -2.421771 2.764228 1.890814 -1.446638 0.848709 7.456391 15.400095 -29.751384 -0.781616 9.167407 -62.877429 -9.240539 6.731472 15.405673 -21.357385 0.575081 -1.630674 -4.978511 -7.368464 26.050040 1.324719 8.870688 57.770998 1.938355 13.132383 -9.924454 20.363194 9.242957 11.685766 6.061083 -14.821998 
-0.249491 1.519916 0.994670 -174.641741 2.451521 83.275814 5.407680 -4.362346 3.287238 -3.205097 5.163334 55.898495 -1.214146 15.019626 -0.030863 0.000000 -0.000000 0.000000 5.204643 4.487454 -9.619598 0.567738 -6.531396 20.843351 -6.348637 -15.868273 -15.251969 0.000000 -0.000000 0.000000 1.008661 -2.093778 1.027308 2.836373 -2.631859 9.224729 0.041510 -4.722847 -2.304819 3.074353 1.213078 -1.317918 1.014482 7.228145 14.963028 -29.715344 -0.820680 9.255383 -63.056990 -8.122035 6.433121 15.371192 -20.237658 0.334805 -1.175007 -4.898696 -7.646675 25.545899 2.310037 8.543625 58.158451 3.298823 13.670617 -10.283290 20.746949 9.402376 11.084793 6.033148 -15.216292 
-0.245967 1.555334 0.999069 -175.493846 1.869020 82.517424 3.900999 -6.101154 -0.337724 -3.327332 5.719582 56.713518 -0.799706 14.826757 -5.132905 0.000000 -0.000000 0.000000 5.685440 4.003735 -5.491724 0.334361 -5.291280 19.144888 -5.650787 -15.770710 -16.662916 0.000000 -0.000000 0.000000 0.729975 -0.374480 2.216952 2.397574 -2.497976 8.554431 -0.028167 -4.001150 -2.010589 3.439347 0.805280 -1.157097 1.209115 6.492957 14.967402 -29.291848 -0.660444 9.087945 -63.279803 -6.536049 6.241372 15.188884 -20.405012 0.992700 -1.155849 -5.210269 -7.649450 24.901108 3.325140 8.229848 58.536579 4.615198 13.850478 -10.564186 21.447074 9.465408 10.675696 6.245163 -15.624114 
-0.243195 1.590118 1.002370 -176.726756 1.260164 81.883287 2.681923 -7.202718 -3.504533 -2.880929 6.702725 54.502761 0.133396 15.558347 -10.259199 0.000000 -0.000000 0.000000 5.784190 2.979199 -1.411810 0.291652 -3.663638 17.148972 -4.800312 -15.145780 -17.983833 0.000000 -0.000000 0.000000 0.679231 1.424936 3.075595 1.836561 -2.190627 7.979275 -0.118592 -3.211939 -1.641028 3.645437 0.374396 -1.043277 1.341826 5.694113 15.241480 -28.764860 -0.322479 8.827908 -63.415505 -4.777591 6.055423 14.711073 -21.547878 1.947384 -1.371959 -5.539134 -7.908058 24.204374 4.285213 7.936180 58.617143 5.874042 13.872105 -10.825124 22.802005 9.144479 10.280609 6.370425 -15.836404 
-0.240840 1.623361 1.004063 -177.926909 0.759520 81.697288 1.971678 -8.193703 -6.760730 -2.021127 8.245103 50.087806 1.327918 17.364821 -13.868034 0.000000 -0.000000 0.000000 5.513597 1.824175 2.025517 0.518216 -2.079434 15.238197 -4.057916 -14.492924 -19.121401 0.000000 -0.000000 0.000000 0.716509 2.996259 3.616362 1.334310 -1.859637 7.346571 -0.155689 -2.498025 -1.384423 3.725604 -0.082677 -1.133058 1.347729 5.111739 15.768062 -28.376715 0.340406 8.538582 -63.505707 -3.063498 5.866300 14.422294 -23.140846 2.566261 -1.657103 -5.793607 -8.607078 23.621372 5.005210 7.737779 58.227778 7.122474 13.864114 -11.140919 24.744902 8.468738 9.953577 6.641548 -16.126724 
-0.238910 1.655496 1.004040 -178.898523 0.414361 81.785174 1.686400 -8.924262 -9.807513 -0.964256 10.095810 43.948668 1.936296 18.914121 -15.627579 0.000000 -0.000000 0.000000 5.105618 0.628316 5.100149 0.740407 -0.732551 13.399141 -3.476078 -13.763990 -20.158244 0.000000 -0.000000 0.000000 0.841667 4.241193 4.094048 0.907406 -1.637841 6.583392 -0.173934 -1.932871 -1.162692 3.800509 -0.236363 -1.523225 1.210583 4.574704 16.280135 -28.113120 1.323580 8.114725 -63.619531 -1.581402 5.623958 14.372346 -24.623376 2.849404 -1.777444 -5.966101 -9.499440 23.209513 5.226093 7.506222 57.467686 8.585344 13.773257 -11.319437 27.016847 7.885452 9.143055 7.024224 -16.496148 
-0.237584 1.687546 1.002232 -179.610972 0.214531 81.851714 1.557175 -8.942636 -12.172434 -0.076975 11.919428 36.552818 2.015256 19.666357 -16.307100 0.000000 -0.000000 0.000000 4.688751 -0.607892 8.161916 0.803951 0.353873 11.620721 -3.009505 -13.053683 -21.174549 0.000000 -0.000000 0.000000 1.074974 5.098188 4.476800 0.487657 -1.580426 6.119304 -0.163695 -1.512579 -0.949349 3.785972 -0.201185 -2.073382 1.077012 4.281066 16.457829 -27.948322 2.262754 7.574002 -63.787086 -0.326244 5.263600 14.445740 -25.768981 2.967181 -1.582310 -6.187514 -10.063819 22.809823 5.305340 7.114326 56.656418 10.203954 13.562288 -11.372731 29.283432 7.286966 8.132565 7.460181 -16.578963 
